<svg width="44" height="44" viewBox="0 0 44 44" fill="none" xmlns="http://www.w3.org/2000/svg">
<circle cx="22" cy="22" r="22" fill="white"/>
<circle cx="22" cy="22" r="19.25" fill="#070D1B"/>
<path d="M6.89121 25.043C6.84855 25.0437 6.80554 25.023 6.76219 24.9811L6.64968 24.9509L6.61795 24.9674L6.64916 24.9189C6.64864 24.8869 6.62705 24.8713 6.58439 24.8719C6.54173 24.8726 6.50974 24.8732 6.48841 24.8735C6.49786 24.7987 6.45459 24.762 6.3586 24.7636C6.27328 24.765 6.23561 24.7443 6.24558 24.7014L6.18133 24.6865C6.1698 24.6333 6.13702 24.5858 6.083 24.544C6.10399 24.5224 6.10889 24.4956 6.0977 24.4638C6.08669 24.4426 6.0811 24.4267 6.08092 24.4161C6.05959 24.4164 6.03809 24.4061 6.01641 24.3851L5.99963 24.3374C5.9783 24.3377 5.94613 24.3276 5.90313 24.3069C5.90278 24.2856 5.8971 24.2644 5.88609 24.2432C5.88574 24.2219 5.88548 24.2059 5.88531 24.1952L5.86931 24.1955C5.85795 24.153 5.84161 24.1319 5.82028 24.1323C5.80961 24.1324 5.79353 24.1274 5.77203 24.117C5.74931 24.0321 5.74294 23.9682 5.75291 23.9253C5.76288 23.8825 5.76193 23.8238 5.75005 23.7493L5.76553 23.7171C5.8173 23.6202 5.84318 23.5718 5.84318 23.5718C5.87518 23.5713 5.90236 23.6029 5.92473 23.6665C5.9471 23.7301 5.96921 23.7778 5.99106 23.8094C6.0019 23.8199 6.01807 23.8303 6.03957 23.8407C6.06108 23.851 6.06658 23.8616 6.05609 23.8724L6.04113 23.9366L6.07287 23.9201C6.07356 23.9628 6.08475 23.9946 6.10642 24.0156C6.11778 24.0581 6.14024 24.1271 6.17379 24.2225C6.20717 24.3073 6.26111 24.3438 6.33559 24.3319C6.33611 24.3639 6.35263 24.3956 6.38514 24.4271C6.42832 24.4584 6.46583 24.4685 6.49765 24.4573C6.50866 24.4785 6.53558 24.494 6.57842 24.504C6.62125 24.514 6.65342 24.5241 6.67492 24.5344C6.72808 24.5229 6.78132 24.5167 6.83464 24.5158C6.89881 24.5255 6.95747 24.5245 7.01062 24.513L7.36153 24.4433C7.37203 24.4324 7.42492 24.4049 7.52021 24.3607C7.61551 24.3165 7.68414 24.2727 7.72611 24.2293L7.7421 24.2291C7.79543 24.2282 7.84858 24.2167 7.90156 24.1945C7.96504 24.1614 8.01793 24.1339 8.06024 24.1119C8.09207 24.1007 8.11847 24.0843 8.13945 24.0626C8.16026 24.0302 8.18658 24.0085 8.2184 23.9973L8.36109 23.915C8.39273 23.8931 8.42464 23.8873 8.45681 23.8974C8.49947 23.8967 8.53646 23.8748 8.56776 23.8316C8.59941 23.8097 8.62564 23.7826 8.64645 23.7503C8.67792 23.7178 8.70415 23.6907 8.72514 23.669L8.77313 23.6682C8.80426 23.6144 8.8249 23.5714 8.83505 23.5392L9.13719 23.4223C9.15817 23.4006 9.17382 23.379 9.18414 23.3575C9.20495 23.3252 9.22052 23.2983 9.23083 23.2768C9.25182 23.2551 9.27822 23.2386 9.31004 23.2275C9.34169 23.2056 9.35717 23.1734 9.35648 23.1307C9.40946 23.1085 9.45702 23.0811 9.49916 23.0484C9.55197 23.0155 9.58869 22.9776 9.60933 22.9346C9.63048 22.9235 9.6937 22.8745 9.79896 22.7875C9.90406 22.6897 10.025 22.5811 10.1617 22.4615C10.2985 22.342 10.4195 22.2386 10.5247 22.1516C10.6298 22.0539 10.6876 21.9996 10.6981 21.9888L10.7611 21.9237L10.262 21.7398C9.98298 21.6377 9.69363 21.557 9.39397 21.4979C9.10479 21.4279 8.7893 21.3797 8.44749 21.3532C8.37266 21.3438 8.31899 21.3233 8.28647 21.2918C8.26445 21.2495 8.25257 21.175 8.25084 21.0684C8.24859 20.9297 8.30044 20.8382 8.4064 20.7938C8.51219 20.7388 8.6344 20.7101 8.77305 20.7078C8.92237 20.7054 9.03986 20.7142 9.12553 20.7341C9.22186 20.7539 9.35544 20.7677 9.52625 20.7756C9.54758 20.7753 9.62783 20.79 9.767 20.8197C9.906 20.8388 10.0557 20.8577 10.216 20.8764C10.2373 20.8761 10.3227 20.88 10.4722 20.8883C10.6324 20.8963 10.7711 20.8994 10.8884 20.8975C11.0269 20.8846 11.1708 20.8769 11.3201 20.8745C11.4694 20.8721 11.6187 20.8697 11.768 20.8672L12.0193 20.5751C12.1136 20.4669 12.2025 20.3588 12.2861 20.2507C12.3803 20.1425 12.48 20.0396 12.5851 19.9418C12.6166 19.9093 12.6482 19.8821 12.6798 19.8603C12.7221 19.8383 12.7589 19.8057 12.7902 19.7625L12.9314 19.5842C12.9523 19.5625 12.9734 19.5461 12.9946 19.5351C13.0264 19.5239 13.0475 19.5129 13.058 19.5021C13.1 19.4587 13.1366 19.4101 13.1677 19.3563C13.1988 19.3025 13.2247 19.254 13.2453 19.211C13.2667 19.2107 13.3035 19.1781 13.3558 19.1132C13.408 19.0484 13.4393 19.0052 13.4497 18.9837C13.5026 18.9615 13.5395 18.9289 13.5601 18.8859C13.5912 18.832 13.617 18.7783 13.6375 18.7246C13.6691 18.7027 13.7008 18.6809 13.7324 18.659C13.7746 18.6263 13.806 18.5938 13.8269 18.5615C13.8477 18.5291 13.8631 18.4916 13.873 18.4487C13.8937 18.4057 13.9252 18.3785 13.9677 18.3672C13.9983 18.2813 14.0661 18.1842 14.171 18.0758C14.2864 17.9566 14.3491 17.8756 14.3591 17.8327C14.4122 17.8212 14.4597 17.7884 14.5015 17.7344C14.5431 17.6697 14.5851 17.6264 14.6274 17.6044C14.6682 17.4863 14.7465 17.3837 14.8625 17.2965C14.9782 17.1986 15.0406 17.0962 15.0495 16.9894C15.0598 16.9679 15.0755 16.9517 15.0967 16.9406C15.1179 16.9296 15.1337 16.9187 15.1442 16.9079C15.1758 16.886 15.1967 16.859 15.2069 16.8268C15.2275 16.7838 15.2536 16.7461 15.285 16.7136C15.2954 16.6921 15.3058 16.6759 15.3163 16.665C15.3374 16.654 15.3532 16.6431 15.3637 16.6323C15.3531 16.6324 15.3156 16.6224 15.2512 16.6021C15.2299 16.6024 15.1872 16.6031 15.1232 16.6042C15.0591 16.5945 14.9897 16.5903 14.915 16.5916C14.6697 16.5955 14.5046 16.6089 14.4196 16.6316C14.2171 16.6456 14.0414 16.6644 13.8924 16.6882C13.7541 16.7118 13.5894 16.7518 13.3983 16.8082C13.3983 16.8082 13.3929 16.803 13.3821 16.7925C13.3712 16.782 13.3605 16.7768 13.3498 16.777L13.3336 16.7613C13.3014 16.7511 13.2961 16.7565 13.3178 16.7775C13.3395 16.7985 13.3344 16.8146 13.3026 16.8258C13.2388 16.8375 13.1644 16.8547 13.0794 16.8774C13.0051 16.8999 12.9359 16.9117 12.872 16.9128C12.8401 16.924 12.8082 16.9298 12.7762 16.9303C12.7441 16.9202 12.712 16.9154 12.68 16.9159C12.5735 16.9283 12.4675 16.9674 12.3618 17.0331C12.2667 17.088 12.166 17.1269 12.0597 17.15L11.8685 17.2011C11.7942 17.2237 11.7359 17.2459 11.6936 17.268C11.6617 17.2791 11.6033 17.2961 11.5184 17.3188L11.3752 17.3691C11.3433 17.3803 11.3062 17.3916 11.2637 17.403C11.2319 17.4141 11.1947 17.4254 11.1522 17.4368C11.0674 17.4702 10.9774 17.509 10.8821 17.5532C10.7975 17.5972 10.7127 17.6306 10.6277 17.6533L10.341 17.738C10.3092 17.7492 10.2613 17.7553 10.1973 17.7563C10.112 17.7577 10.0531 17.748 10.0208 17.7272C9.9778 17.7066 9.92352 17.6488 9.85797 17.5538C9.80291 17.448 9.78037 17.3737 9.79034 17.3309C9.85277 17.2339 9.97954 17.1571 10.1707 17.1007C10.3723 17.0334 10.4996 16.994 10.5528 16.9825C10.5633 16.9716 10.611 16.9548 10.696 16.9321C10.7915 16.8986 10.8817 16.8704 10.9666 16.8477C11.0516 16.825 11.0943 16.8243 11.0946 16.8456C11.1055 16.8561 11.0475 16.8997 10.9207 16.9765C10.7938 17.0425 10.7251 17.081 10.7146 17.0918C10.7148 17.1025 10.7043 17.1187 10.6834 17.1404C10.673 17.1619 10.6731 17.1672 10.6836 17.1564L11.05 17.0544C11.0712 17.0434 11.1137 17.0373 11.1777 17.0363L11.2897 17.0345C11.3644 17.0333 11.4122 17.0218 11.4332 17.0002C11.4538 16.9571 11.4748 16.9355 11.4961 16.9351C11.5491 16.9129 11.6288 16.8956 11.7353 16.8832C11.8523 16.86 11.9266 16.8375 11.9583 16.8156C12.0114 16.8041 12.07 16.7978 12.134 16.7967C12.1978 16.785 12.2562 16.7681 12.3092 16.7459C12.341 16.7347 12.4473 16.7116 12.6281 16.6767C12.8195 16.6416 13.011 16.6065 13.2025 16.5714C13.3939 16.5363 13.5003 16.5185 13.5216 16.5182L13.5376 16.5179C13.591 16.517 13.6442 16.5108 13.6974 16.4993C13.7503 16.4771 13.7827 16.4979 13.7944 16.5617C13.805 16.5616 13.8105 16.5668 13.8106 16.5775C13.8106 16.5775 13.816 16.5774 13.8266 16.5772C13.8906 16.5762 13.9488 16.5486 14.0013 16.4944C14.0225 16.4834 14.0756 16.4718 14.1608 16.4598C14.2459 16.4477 14.2992 16.4415 14.3205 16.4412C14.4056 16.4291 14.4749 16.4227 14.5282 16.4218C14.5815 16.4209 14.6295 16.4202 14.6722 16.4195C14.7575 16.4181 14.8322 16.4222 14.8964 16.4318C14.9711 16.4306 15.0618 16.4345 15.1686 16.4434C15.2115 16.4534 15.2649 16.4579 15.3289 16.4568C15.4035 16.4556 15.4676 16.4599 15.5211 16.4697L15.5838 16.3887C15.6578 16.3448 15.7214 16.3224 15.7747 16.3216C15.8174 16.3209 15.8391 16.3418 15.8398 16.3845C15.8417 16.5018 15.7847 16.6094 15.669 16.7073C15.6585 16.7182 15.6321 16.7346 15.5898 16.7566C15.5473 16.768 15.5209 16.7844 15.5106 16.8059C15.4595 16.9454 15.3549 17.0751 15.1968 17.1951C15.0494 17.3148 14.9708 17.4014 14.961 17.4549C14.9187 17.4769 14.8712 17.5097 14.8186 17.5532C14.766 17.5968 14.7347 17.64 14.7247 17.6828C14.6724 17.7476 14.6309 17.8177 14.6001 17.8928C14.5691 17.9574 14.5222 18.0221 14.4592 18.0872C14.4278 18.1197 14.3755 18.1845 14.3024 18.2817C14.2293 18.3789 14.1562 18.4761 14.0831 18.5733C14.0098 18.6599 13.9572 18.7034 13.9252 18.7039C13.8937 18.7364 13.8781 18.758 13.8782 18.7687C13.8891 18.7792 13.8681 18.8008 13.8153 18.8337C13.7628 18.8879 13.7211 18.9473 13.6902 19.0118C13.6263 19.0235 13.5737 19.067 13.5323 19.1423C13.5013 19.2069 13.4703 19.266 13.4391 19.3199C13.3973 19.3739 13.3501 19.4227 13.2975 19.4662C13.2555 19.5096 13.2136 19.5582 13.1718 19.6123C13.1294 19.6236 13.0821 19.6724 13.0302 19.7586C12.9887 19.8339 12.9576 19.8878 12.9368 19.9201C12.874 19.9958 12.8163 20.0554 12.7637 20.099C12.7217 20.1423 12.7016 20.2173 12.7033 20.324C12.6824 20.3456 12.6509 20.3782 12.6089 20.4215C12.5669 20.4649 12.5409 20.5026 12.5307 20.5348C12.5101 20.5778 12.4787 20.6157 12.4366 20.6483C12.4051 20.6809 12.379 20.7186 12.3584 20.7616L12.3109 20.7944L12.2954 20.8267C12.4234 20.8246 12.5514 20.8225 12.6794 20.8204C12.8074 20.8183 12.9299 20.811 13.0471 20.7984L13.5745 20.7579C13.5958 20.7575 13.6281 20.773 13.6713 20.8043C13.7249 20.8248 13.757 20.8296 13.7675 20.8187C13.7995 20.8182 13.8099 20.8021 13.7987 20.7702C13.7874 20.7277 13.803 20.7062 13.8457 20.7055C13.9415 20.6932 14.0586 20.6807 14.1971 20.6678C14.3461 20.644 14.4896 20.615 14.6278 20.5807L14.7645 20.1305L14.9009 19.6642C14.921 19.5892 14.9522 19.5407 14.9946 19.5186C15.0369 19.4966 15.063 19.4642 15.073 19.4214C15.0833 19.3999 15.0724 19.384 15.0402 19.3739C15.0079 19.3531 15.0074 19.3211 15.0387 19.2779C15.1298 18.9777 15.2476 18.6771 15.3921 18.376C15.5365 18.075 15.6601 17.8009 15.7628 17.5539L15.7625 17.5379C15.7938 17.4947 15.8199 17.4623 15.8409 17.4406C15.8726 17.4188 15.8935 17.3918 15.9036 17.3596C15.8928 17.3491 15.8926 17.3384 15.9031 17.3276C15.9136 17.3168 15.9081 17.3062 15.8866 17.2959C15.96 17.22 16.0011 17.1233 16.0099 17.0058L16.1644 16.6673L16.3981 16.2794C16.4083 16.2473 16.4343 16.2095 16.4763 16.1661C16.5601 16.0688 16.6339 16.0196 16.6979 16.0185C16.7939 16.017 16.8002 16.0755 16.7168 16.1942L16.6861 16.2747L16.5765 16.4205L16.5153 16.5976C16.4118 16.7913 16.3138 17.0009 16.2215 17.2264C16.1291 17.4519 16.0263 17.6883 15.913 17.9355L15.914 17.9995C15.9149 18.0528 15.8995 18.0904 15.8678 18.1123C15.8468 18.134 15.8045 18.156 15.7409 18.1783C15.7739 18.2418 15.7804 18.3111 15.7603 18.3861L15.6535 18.7078C15.6125 18.8152 15.556 18.9441 15.4837 19.0946C15.4115 19.2452 15.3708 19.3632 15.3615 19.4487C15.2604 19.7917 15.1857 20.1183 15.1374 20.4284C15.1692 20.4173 15.201 20.4061 15.2328 20.3949C15.2646 20.3837 15.2911 20.3726 15.3123 20.3616C15.3653 20.3394 15.4024 20.3281 15.4238 20.3278C15.4558 20.3273 15.4983 20.3212 15.5515 20.3097C15.6151 20.2873 15.6787 20.2596 15.7422 20.2266C15.7738 20.2047 15.8163 20.1934 15.8696 20.1925C15.9229 20.1917 15.9499 20.2072 15.9504 20.2392C15.9511 20.2819 15.9039 20.3307 15.8087 20.3855L15.4759 20.583C15.3909 20.6057 15.3218 20.6175 15.2685 20.6183C15.2471 20.6187 15.194 20.6302 15.109 20.6529L15.051 21.0219L15.0709 21.2616C15.0607 21.2938 15.013 21.3106 14.9277 21.312C14.853 21.3132 14.8431 21.3614 14.898 21.4565C14.9415 21.5091 14.9688 21.546 14.9798 21.5672C14.9907 21.5776 14.9861 21.6257 14.9662 21.7114C14.9256 21.8401 14.891 22.0113 14.8625 22.2251C14.8446 22.4388 14.8315 22.615 14.8231 22.7539C14.8233 22.7645 14.813 22.7914 14.7924 22.8344C14.7824 22.8772 14.7723 22.9094 14.7619 22.9309C14.7621 22.9415 14.7675 22.9468 14.7782 22.9466C14.7995 22.9463 14.8104 22.9568 14.8107 22.9781C14.8357 23.2017 14.8391 23.4097 14.8209 23.602L14.7948 23.9705C14.795 23.9811 14.7847 24.0026 14.7639 24.035C14.7431 24.0673 14.7382 24.0941 14.7492 24.1152C14.7191 24.2331 14.6617 24.314 14.5771 24.3581C14.4926 24.4128 14.4078 24.4408 14.3224 24.4422C14.1625 24.4448 14.0554 24.4199 14.0012 24.3674L13.9201 24.3047L13.9144 23.9528C13.8496 23.9005 13.7847 23.8482 13.7199 23.7959C13.655 23.7436 13.5902 23.6967 13.5255 23.6551C13.4068 23.5716 13.2883 23.4989 13.17 23.4368C13.0621 23.3639 12.9488 23.2857 12.8301 23.2023C12.7006 23.1084 12.5709 23.0091 12.4412 22.9046C12.3222 22.7998 12.1925 22.7006 12.0523 22.6068C11.9013 22.5026 11.7451 22.4091 11.5837 22.3264C11.4222 22.233 11.2608 22.1503 11.0996 22.0782C11.0576 22.1216 10.979 22.2029 10.8635 22.3221C10.748 22.4307 10.6377 22.5391 10.5328 22.6475C10.4277 22.7452 10.3646 22.7996 10.3434 22.8106C10.3331 22.8321 10.3174 22.8537 10.2965 22.8754C10.2861 22.8969 10.2705 22.9185 10.2495 22.9402C10.2283 22.9512 10.1966 22.9677 10.1543 22.9897C10.1226 23.0116 10.107 23.0332 10.1073 23.0545C10.0864 23.0762 10.0547 23.098 10.0124 23.12C9.98057 23.1312 9.95967 23.1582 9.9497 23.2011L9.96596 23.2168C9.92347 23.2282 9.90231 23.2392 9.90249 23.2498C9.91332 23.2603 9.919 23.2816 9.91952 23.3136C9.90903 23.3244 9.87205 23.3463 9.80858 23.3794C9.75577 23.4122 9.71879 23.4342 9.69763 23.4452C9.60251 23.5001 9.53388 23.5439 9.49174 23.5766C9.46026 23.6091 9.41864 23.6738 9.36687 23.7706C9.33522 23.7925 9.26659 23.8362 9.16098 23.902C9.05537 23.9677 9.00273 24.0112 9.00308 24.0326C8.96059 24.0439 8.93428 24.0657 8.92413 24.0978C8.91398 24.13 8.89842 24.1569 8.87744 24.1786C8.86712 24.2001 8.84605 24.2165 8.81422 24.2276C8.7824 24.2388 8.76142 24.2605 8.75127 24.2927L8.71954 24.3092L8.70354 24.3095C8.67154 24.31 8.63981 24.3265 8.60833 24.359C8.58752 24.3913 8.56662 24.4184 8.54564 24.44C8.42849 24.4526 8.33836 24.4861 8.27523 24.5404C8.22295 24.6053 8.14915 24.6598 8.05386 24.7041C7.92674 24.7595 7.79429 24.815 7.65651 24.8705C7.51873 24.9261 7.37536 24.9658 7.22639 24.9895C7.18407 25.0116 7.15234 25.0281 7.13118 25.0391C7.12086 25.0606 7.08887 25.0611 7.03519 25.0406C7.056 25.0083 7.05041 24.9924 7.01842 24.9929C6.97627 25.0256 6.93387 25.0423 6.89121 25.043ZM13.943 23.7443L13.9423 23.6963C13.9418 23.6643 13.9572 23.632 13.9887 23.5995C13.9777 23.5784 13.9669 23.5679 13.9562 23.568C13.956 23.5574 13.9558 23.5467 13.9557 23.5361L14.2659 21.9468C14.3054 21.7541 14.3503 21.5614 14.4005 21.3685C14.4612 21.1649 14.5219 20.9612 14.5826 20.7575C14.5615 20.7685 14.5402 20.7742 14.5189 20.7745C14.4657 20.7861 14.4232 20.7921 14.3912 20.7926C14.3592 20.7931 14.306 20.8047 14.2317 20.8272C14.1254 20.8503 14.0033 20.8843 13.8653 20.9292C13.738 20.9739 13.5998 21.0028 13.4507 21.0159C13.3442 21.0283 13.2589 21.0297 13.1947 21.0201C13.1412 21.0103 13.0612 21.0116 12.9547 21.024C12.9016 21.0355 12.8165 21.0529 12.6996 21.0761C12.5824 21.0887 12.4918 21.0955 12.4278 21.0965L11.933 21.1686C11.933 21.1686 11.9277 21.174 11.9172 21.1848C11.9174 21.1955 11.9176 21.2062 11.9177 21.2168C11.8967 21.2385 11.8547 21.2765 11.7916 21.3309C11.7389 21.3744 11.7076 21.4176 11.6977 21.4604L11.6499 21.4772C11.6394 21.4881 11.6185 21.5151 11.5872 21.5583C11.5664 21.5906 11.5509 21.6175 11.5405 21.639C11.4981 21.6504 11.4612 21.6777 11.4299 21.7208C11.3986 21.764 11.3726 21.8071 11.3519 21.8501C11.3093 21.8508 11.2775 21.862 11.2565 21.8837C11.5147 22.0182 11.7463 22.1531 11.9511 22.2884C11.9943 22.3197 12.0268 22.3512 12.0487 22.3829C12.0705 22.4145 12.1031 22.446 12.1462 22.4773C12.2433 22.5397 12.3348 22.5916 12.4208 22.6329C12.5173 22.6633 12.6034 22.7099 12.6791 22.7727L13.6669 23.4927C13.6993 23.5135 13.7425 23.5502 13.7967 23.6026C13.8507 23.6444 13.8995 23.6916 13.943 23.7443ZM10.9499 21.7286C11.0339 21.6419 11.1178 21.5552 11.2017 21.4685C11.2857 21.3818 11.3696 21.2951 11.4535 21.2084L10.159 21.3094C10.0099 21.3225 9.9033 21.3296 9.83931 21.3306C9.78598 21.3315 9.70616 21.3434 9.59986 21.3665C9.73903 21.3963 9.87295 21.4314 10.0016 21.472C10.1301 21.5019 10.2587 21.5372 10.3874 21.5777C10.4411 21.5982 10.4894 21.6188 10.5324 21.6394C10.5754 21.66 10.6184 21.6807 10.6614 21.7013C10.6829 21.7116 10.7042 21.706 10.7252 21.6843C10.746 21.6519 10.7618 21.641 10.7726 21.6515L10.9499 21.7286Z" fill="#FEC544"/>
<path d="M15.5785 15.4636H17.7091L21.4137 24.5091H21.55L25.2546 15.4636H27.3853V27.1H25.7148V18.6795H25.6069L22.175 27.0829H20.7887L17.3569 18.6738H17.2489V27.1H15.5785V15.4636Z" fill="#FEC544"/>
<path d="M27.748 15.9V22.972L32.916 15.9L33.044 16.012L30.18 19.916L34.436 27.1H32.948L29.364 21.036L27.748 23.26V27.1H26.42V15.9H27.748Z" fill="#FEC544"/>
</svg>
