<svg width="170" height="40" viewBox="0 0 170 40" fill="none" xmlns="http://www.w3.org/2000/svg">
<path d="M42.6847 33H39.3097L48.3523 15.5455H52.2557L55.5114 33H52.1364L49.7926 19.125H49.6562L42.6847 33ZM43.929 26.1562H53.1335L52.7074 28.696H43.5028L43.929 26.1562ZM133.974 15.5455H137.843L140.937 28.1932H141.141L148.411 15.5455H152.281L149.383 33H146.349L148.343 21.0085H148.19L141.371 32.9489H139.113L136.283 20.983H136.121L134.11 33H131.076L133.974 15.5455ZM152.826 33L155.724 15.5455H158.886L157.565 23.5653H157.778L165.908 15.5455H169.769L161.732 23.3778L166.931 33H163.13L159.192 25.517L156.857 27.8182L155.988 33H152.826Z" fill="#FEC544"/>
<path d="M62.0376 25.3295L60.7763 33H57.6825L59.8643 19.9091H62.8217L62.4467 22.1335H62.6087C63.0178 21.4006 63.5916 20.8182 64.3303 20.3864C65.0689 19.9545 65.9297 19.7386 66.9126 19.7386C67.8047 19.7386 68.5547 19.9318 69.1626 20.3182C69.7706 20.6989 70.2024 21.2585 70.4581 21.9972C70.7138 22.7301 70.7536 23.6193 70.5774 24.6648L69.1797 33H66.0945L67.3984 25.142C67.5462 24.2727 67.4354 23.5909 67.0661 23.0966C66.7024 22.5966 66.1172 22.3466 65.3104 22.3466C64.7706 22.3466 64.2734 22.4659 63.8189 22.7045C63.3643 22.9375 62.9808 23.2756 62.6683 23.7188C62.3615 24.1619 62.1513 24.6989 62.0376 25.3295ZM81.5547 27.4943L82.8246 19.9091H85.9098L83.728 33H80.7365L81.1286 30.6733H80.9922C80.5831 31.4062 79.9979 32.0057 79.2365 32.4716C78.4808 32.9375 77.6115 33.1705 76.6286 33.1705C75.7706 33.1705 75.0462 32.9801 74.4553 32.5994C73.8643 32.2131 73.4439 31.6534 73.1939 30.9205C72.9496 30.1818 72.9126 29.2898 73.0831 28.2443L74.4808 19.9091H77.5661L76.2536 27.767C76.1229 28.5966 76.2422 29.2557 76.6115 29.7443C76.9865 30.233 77.5433 30.4773 78.282 30.4773C78.7365 30.4773 79.1939 30.3665 79.6541 30.1449C80.12 29.9233 80.5263 29.5938 80.8729 29.1562C81.2195 28.7131 81.4467 28.1591 81.5547 27.4943ZM86.9006 33L89.0824 19.9091H92.0739L91.7074 22.0909H91.8438C92.2017 21.3352 92.7074 20.7528 93.3608 20.3438C94.0199 19.929 94.7244 19.7216 95.4744 19.7216C95.6506 19.7216 95.8409 19.7301 96.0455 19.7472C96.25 19.7585 96.4261 19.7784 96.5739 19.8068L96.0966 22.6449C95.9659 22.5994 95.7614 22.5597 95.483 22.5256C95.2102 22.4858 94.9403 22.4659 94.6733 22.4659C94.1108 22.4659 93.5881 22.5881 93.1051 22.8324C92.6278 23.071 92.2244 23.4034 91.8949 23.8295C91.5653 24.2557 91.3523 24.7472 91.2557 25.304L89.9858 33H86.9006ZM99.9382 33.2642C99.1087 33.2642 98.3871 33.1165 97.7734 32.821C97.1598 32.5199 96.7081 32.0767 96.4183 31.4915C96.1342 30.9062 96.0632 30.1847 96.2053 29.3267C96.3303 28.5881 96.5689 27.9773 96.9212 27.4943C97.2791 27.0114 97.7166 26.625 98.2337 26.3352C98.7564 26.0398 99.3246 25.8182 99.9382 25.6705C100.558 25.5227 101.188 25.4148 101.83 25.3466C102.614 25.267 103.248 25.1932 103.731 25.125C104.219 25.0568 104.586 24.9545 104.83 24.8182C105.075 24.6761 105.222 24.4602 105.273 24.1705V24.1193C105.376 23.4773 105.273 22.9801 104.967 22.6278C104.66 22.2756 104.148 22.0994 103.433 22.0994C102.683 22.0994 102.052 22.2642 101.54 22.5938C101.029 22.9233 100.657 23.3125 100.424 23.7614L97.6286 23.3523C97.9808 22.5568 98.4638 21.892 99.0774 21.358C99.6911 20.8182 100.398 20.4148 101.2 20.1477C102.006 19.875 102.867 19.7386 103.782 19.7386C104.407 19.7386 105.018 19.8125 105.614 19.9602C106.217 20.108 106.748 20.3523 107.208 20.6932C107.674 21.0284 108.015 21.4858 108.231 22.0653C108.452 22.6449 108.489 23.3693 108.342 24.2386L106.884 33H103.918L104.225 31.2017H104.123C103.879 31.5653 103.56 31.9062 103.168 32.2244C102.776 32.5369 102.31 32.7898 101.771 32.983C101.231 33.1705 100.62 33.2642 99.9382 33.2642ZM101.106 30.9972C101.725 30.9972 102.282 30.875 102.776 30.6307C103.271 30.3807 103.677 30.0511 103.995 29.642C104.313 29.233 104.512 28.7869 104.592 28.304L104.847 26.7614C104.734 26.8409 104.558 26.9148 104.319 26.983C104.08 27.0511 103.813 27.1108 103.518 27.1619C103.228 27.2131 102.941 27.2585 102.657 27.2983C102.373 27.3381 102.129 27.3722 101.924 27.4006C101.452 27.4631 101.021 27.5653 100.629 27.7074C100.242 27.8494 99.9212 28.0483 99.6655 28.304C99.4155 28.554 99.2592 28.8778 99.1967 29.2756C99.1058 29.8381 99.2393 30.267 99.5973 30.5625C99.9553 30.8523 100.458 30.9972 101.106 30.9972ZM114.862 38.1818C113.748 38.1818 112.819 38.0313 112.075 37.7301C111.33 37.4347 110.756 37.0369 110.353 36.5369C109.95 36.0369 109.7 35.483 109.603 34.875L112.501 34.2017C112.586 34.4574 112.722 34.7102 112.91 34.9602C113.103 35.2159 113.387 35.4261 113.762 35.5909C114.137 35.7614 114.637 35.8466 115.262 35.8466C116.137 35.8466 116.901 35.6335 117.555 35.2074C118.208 34.7813 118.612 34.0881 118.765 33.1278L119.157 30.6477H119.004C118.799 30.9659 118.518 31.2926 118.16 31.6278C117.808 31.9631 117.362 32.2443 116.822 32.4716C116.288 32.6989 115.646 32.8125 114.896 32.8125C113.89 32.8125 113.018 32.5767 112.279 32.1051C111.54 31.6278 111.009 30.9176 110.685 29.9744C110.367 29.0256 110.327 27.8381 110.566 26.4119C110.799 24.9744 111.237 23.7614 111.879 22.7727C112.526 21.7784 113.302 21.0256 114.205 20.5142C115.109 19.9972 116.063 19.7386 117.069 19.7386C117.836 19.7386 118.447 19.8693 118.901 20.1307C119.356 20.3864 119.7 20.696 119.933 21.0597C120.165 21.4176 120.336 21.7557 120.444 22.0739H120.606L120.964 19.9091H124.006L121.808 33.2131C121.626 34.3324 121.208 35.2585 120.555 35.9915C119.901 36.7301 119.08 37.2784 118.092 37.6364C117.109 38 116.032 38.1818 114.862 38.1818ZM116.123 30.392C116.776 30.392 117.362 30.233 117.879 29.9148C118.396 29.5966 118.827 29.1392 119.174 28.5426C119.521 27.946 119.762 27.2301 119.898 26.3949C120.035 25.571 120.029 24.8494 119.881 24.2301C119.739 23.6108 119.464 23.1307 119.055 22.7898C118.646 22.4432 118.112 22.2699 117.452 22.2699C116.765 22.2699 116.163 22.4489 115.646 22.8068C115.134 23.1648 114.714 23.6562 114.384 24.2812C114.06 24.9006 113.833 25.6051 113.702 26.3949C113.577 27.196 113.577 27.8977 113.702 28.5C113.833 29.0966 114.097 29.5625 114.495 29.8977C114.898 30.2273 115.441 30.392 116.123 30.392Z" fill="white"/>
<g style="mix-blend-mode:plus-darker">
<path d="M20.4639 27H20L22.568 23H23.0414L24 27H23.5361L22.729 23.4746H22.6982L20.4639 27ZM21.1077 25.4668H23.5124L23.4462 25.7949H21.0414L21.1077 25.4668Z" fill="black"/>
</g>
<circle cx="20" cy="20" r="20" fill="white"/>
<circle cx="20" cy="20" r="17.5" fill="#070D1B"/>
<path d="M7.50468 26.1394L5.64129 26.1697L9.63925 14.4668L11.6674 14.4339L16.0433 26.0007L14.1799 26.031L10.7359 16.5629L10.645 16.5644L7.50468 26.1394ZM7.74313 21.5781L13.7878 21.4799L13.8118 22.957L7.76713 23.0552L7.74313 21.5781Z" fill="#FEC544"/>
<path d="M14.2784 14.3636H16.4091L20.1136 23.4091H20.25L23.9545 14.3636H26.0852V26H24.4148V17.5795H24.3068L20.875 25.983H19.4886L16.0568 17.5739H15.9489V26H14.2784V14.3636Z" fill="#FEC544"/>
<path d="M24.2784 26V14.3636H26.0341V19.9205H26.1761L31.0568 14.3636H33.267L28.5739 19.6023L33.2841 26H31.1705L27.4091 20.8011L26.0341 22.3807V26H24.2784Z" fill="#FEC544"/>
</svg>
